<svg width="24" height="24" viewBox="0 0 24 24" fill="none" xmlns="http://www.w3.org/2000/svg">
<mask id="mask0_1740_34345" style="mask-type:alpha" maskUnits="userSpaceOnUse" x="0" y="0" width="24" height="24">
<rect width="24" height="24" fill="#D9D9D9"/>
</mask>
<g mask="url(#mask0_1740_34345)">
<path d="M16 8H13.75C13.5375 8 13.3593 7.92808 13.2155 7.78425C13.0718 7.64042 13 7.46225 13 7.24975C13 7.03708 13.0718 6.859 13.2155 6.7155C13.3593 6.57183 13.5375 6.5 13.75 6.5H16V4.25C16 4.0375 16.0719 3.85942 16.2158 3.71575C16.3596 3.57192 16.5378 3.5 16.7503 3.5C16.9629 3.5 17.141 3.57192 17.2845 3.71575C17.4282 3.85942 17.5 4.0375 17.5 4.25V6.5H19.75C19.9625 6.5 20.1406 6.57192 20.2843 6.71575C20.4281 6.85958 20.5 7.03775 20.5 7.25025C20.5 7.46292 20.4281 7.641 20.2843 7.7845C20.1406 7.92817 19.9625 8 19.75 8H17.5V10.25C17.5 10.4625 17.4281 10.6407 17.2843 10.7845C17.1404 10.9282 16.9622 11 16.7498 11C16.5371 11 16.359 10.9282 16.2155 10.7845C16.0718 10.6407 16 10.4625 16 10.25V8ZM19.4402 20.5C17.5557 20.5 15.6625 20.0618 13.7605 19.1855C11.8587 18.3092 10.1113 17.073 8.51825 15.477C6.92542 13.8808 5.69083 12.1333 4.8145 10.2345C3.93817 8.33583 3.5 6.44425 3.5 4.55975C3.5 4.25692 3.6 4.00458 3.8 3.80275C4 3.60092 4.25 3.5 4.55 3.5H7.8115C8.064 3.5 8.28675 3.58242 8.47975 3.74725C8.67275 3.91192 8.7955 4.11542 8.848 4.35775L9.42125 7.3C9.46092 7.573 9.45258 7.80758 9.39625 8.00375C9.33975 8.19992 9.23842 8.36467 9.09225 8.498L6.78275 10.7462C7.15442 11.4269 7.57908 12.0708 8.05675 12.678C8.53425 13.285 9.05125 13.8648 9.60775 14.4173C10.1564 14.9661 10.7397 15.4757 11.3577 15.9462C11.9757 16.4167 12.6431 16.8546 13.3598 17.2598L15.6038 14.9963C15.7603 14.8334 15.9498 14.7193 16.1723 14.6538C16.3946 14.5884 16.6257 14.5724 16.8655 14.6058L19.6423 15.1713C19.8948 15.2379 20.1008 15.3667 20.2605 15.5577C20.4202 15.7487 20.5 15.9654 20.5 16.2078V19.45C20.5 19.75 20.3991 20 20.1973 20.2C19.9954 20.4 19.7431 20.5 19.4402 20.5ZM6.073 9.327L7.85775 7.61925C7.88975 7.59358 7.91058 7.55833 7.92025 7.5135C7.92992 7.46867 7.92833 7.427 7.9155 7.3885L7.48075 5.15375C7.46792 5.10258 7.4455 5.06417 7.4135 5.0385C7.3815 5.01283 7.33983 5 7.2885 5H5.15C5.1115 5 5.07942 5.01283 5.05375 5.0385C5.02825 5.06417 5.0155 5.09625 5.0155 5.13475C5.06667 5.81808 5.1785 6.51225 5.351 7.21725C5.52333 7.92242 5.764 8.62567 6.073 9.327ZM14.773 17.9693C15.4358 18.2783 16.1272 18.5145 16.847 18.678C17.567 18.8413 18.2397 18.9384 18.8652 18.9693C18.9037 18.9693 18.9358 18.9564 18.9615 18.9307C18.9872 18.9051 19 18.873 19 18.8345V16.7308C19 16.6794 18.9872 16.6377 18.9615 16.6058C18.9358 16.5738 18.8974 16.5513 18.8462 16.5385L16.7462 16.1115C16.7077 16.0987 16.6741 16.0971 16.6453 16.1067C16.6164 16.1164 16.5859 16.1372 16.5538 16.1692L14.773 17.9693Z" fill="#4B4743"/>
</g>
</svg>
