<svg width="117" height="40" viewBox="0 0 117 40" fill="none" xmlns="http://www.w3.org/2000/svg">
<rect width="117" height="40" rx="5" fill="#090909"/>
<path d="M26.8184 20.6071C26.8415 18.9172 27.8039 17.3181 29.3306 16.4329C28.3674 15.1357 26.7542 14.3132 25.0758 14.2637C23.2857 14.0865 21.5503 15.2739 20.6381 15.2739C19.7082 15.2739 18.3037 14.2812 16.7913 14.3106C14.8199 14.3707 12.9821 15.4277 12.023 17.0531C9.96127 20.4194 11.4991 25.3668 13.4741 28.0878C14.4622 29.4203 15.617 30.9087 17.128 30.8559C18.6067 30.798 19.1589 29.9667 20.9438 29.9667C22.7121 29.9667 23.2302 30.8559 24.7719 30.8223C26.3586 30.798 27.3583 29.484 28.3117 28.1389C29.0217 27.1895 29.568 26.1402 29.9304 25.0299C28.0658 24.2861 26.8206 22.5164 26.8184 20.6071Z" fill="white"/>
<path d="M23.9063 12.4741C24.7715 11.4947 25.1977 10.2358 25.0945 8.96484C23.7728 9.09576 22.5519 9.69149 21.6751 10.6333C20.8177 11.5536 20.3715 12.7903 20.4558 14.0127C21.778 14.0255 23.0778 13.446 23.9063 12.4741Z" fill="white"/>
<path d="M79.5576 18.8614V20.9093H78.1965V22.2524H79.5576V26.8156C79.5576 28.3738 80.305 28.9971 82.1855 28.9971C82.5159 28.9971 82.8306 28.96 83.106 28.9154V27.5873C82.87 27.6095 82.7205 27.6244 82.4608 27.6244C81.619 27.6244 81.2492 27.2534 81.2492 26.4075V22.2524H83.106V20.9093H81.2492V18.8614H79.5576Z" fill="white"/>
<path d="M87.8962 29.1084C90.3982 29.1084 91.9324 27.5279 91.9324 24.9087C91.9324 22.3043 90.3903 20.7164 87.8962 20.7164C85.3943 20.7164 83.8522 22.3043 83.8522 24.9087C83.8522 27.5279 85.3864 29.1084 87.8962 29.1084ZM87.8962 27.6912C86.4249 27.6912 85.5988 26.6746 85.5988 24.9087C85.5988 23.1576 86.4249 22.1336 87.8962 22.1336C89.3596 22.1336 90.1936 23.1576 90.1936 24.9087C90.1936 26.6672 89.3596 27.6912 87.8962 27.6912Z" fill="white"/>
<path d="M93.2451 28.9525H94.9367V24.1815C94.9367 23.0463 95.8415 22.282 97.1239 22.282C97.4229 22.282 97.9264 22.334 98.068 22.3785V20.8055C97.8871 20.7609 97.5645 20.7387 97.3127 20.7387C96.1955 20.7387 95.2435 21.3174 94.9996 22.1114H94.8737V20.8722H93.2451V28.9525Z" fill="white"/>
<path d="M102.268 22.0743C103.519 22.0743 104.337 22.8979 104.377 24.1667H100.049C100.144 22.9053 101.017 22.0743 102.268 22.0743ZM104.369 26.7711C104.054 27.4018 103.354 27.7505 102.331 27.7505C100.978 27.7505 100.105 26.8527 100.049 25.4355V25.3465H106.1V24.79C106.1 22.2524 104.66 20.7164 102.276 20.7164C99.8606 20.7164 98.3264 22.3562 98.3264 24.9384C98.3264 27.5205 99.8292 29.1084 102.284 29.1084C104.243 29.1084 105.612 28.218 105.998 26.7711H104.369Z" fill="white"/>
<path d="M68.4645 25.9686C68.595 27.9528 70.3482 29.2217 72.9578 29.2217C75.7467 29.2217 77.4918 27.8912 77.4918 25.7687C77.4918 24.0998 76.4969 23.177 74.0831 22.6463L72.7865 22.3464C71.2534 22.008 70.6337 21.5543 70.6337 20.7621C70.6337 19.7624 71.5959 19.1087 73.0393 19.1087C74.4093 19.1087 75.3553 19.747 75.5265 20.7698H77.3042C77.1982 18.901 75.4531 17.5859 73.0638 17.5859C70.495 17.5859 68.7825 18.901 68.7825 20.8775C68.7825 22.5079 69.7529 23.4769 71.8813 23.946L73.3981 24.2921C74.9557 24.6382 75.6407 25.1457 75.6407 25.9917C75.6407 26.9761 74.5642 27.6913 73.0964 27.6913C71.5225 27.6913 70.4298 27.0222 70.2748 25.9686H68.4645Z" fill="white"/>
<path d="M50.9415 20.7387C49.777 20.7387 48.7699 21.2878 48.2507 22.2078H48.1248V20.8722H46.4962V31.6386H48.1877V27.7283H48.3215C48.7699 28.5815 49.7377 29.0861 50.9572 29.0861C53.1208 29.0861 54.4977 27.476 54.4977 24.9087C54.4977 22.3414 53.1208 20.7387 50.9415 20.7387ZM50.4615 27.6541C49.0453 27.6541 48.1563 26.6004 48.1563 24.9161C48.1563 23.2244 49.0453 22.1707 50.4694 22.1707C51.9013 22.1707 52.7589 23.2021 52.7589 24.9087C52.7589 26.6227 51.9013 27.6541 50.4615 27.6541Z" fill="white"/>
<path d="M60.4168 20.7387C59.2524 20.7387 58.2453 21.2878 57.726 22.2078H57.6001V20.8722H55.9715V31.6386H57.6631V27.7283H57.7968C58.2453 28.5815 59.213 29.0861 60.4326 29.0861C62.5962 29.0861 63.9731 27.476 63.9731 24.9087C63.9731 22.3414 62.5962 20.7387 60.4168 20.7387ZM59.9369 27.6541C58.5207 27.6541 57.6316 26.6004 57.6316 24.9161C57.6316 23.2244 58.5207 22.1707 59.9448 22.1707C61.3767 22.1707 62.2343 23.2021 62.2343 24.9087C62.2343 26.6227 61.3767 27.6541 59.9369 27.6541Z" fill="white"/>
<path d="M43.4612 28.9525H45.402L41.1534 17.8551H39.1881L34.9395 28.9525H36.815L37.8996 26.0071H42.3847L43.4612 28.9525ZM40.0769 19.87H40.2156L41.9199 24.5612H38.3644L40.0769 19.87Z" fill="white"/>
<path d="M34.8926 10.0283V14.4149H36.572C37.958 14.4149 38.7606 13.6093 38.7606 12.2079C38.7606 10.8278 37.9516 10.0283 36.572 10.0283H34.8926ZM35.6146 10.6485H36.4914C37.4552 10.6485 38.0257 11.226 38.0257 12.217C38.0257 13.2232 37.4648 13.7947 36.4914 13.7947H35.6146V10.6485Z" fill="white"/>
<path d="M41.2188 14.4787C42.2438 14.4787 42.8723 13.8312 42.8723 12.7581C42.8723 11.6911 42.2406 11.0406 41.2188 11.0406C40.1937 11.0406 39.5619 11.6911 39.5619 12.7581C39.5619 13.8312 40.1905 14.4787 41.2188 14.4787ZM41.2188 13.8981C40.616 13.8981 40.2775 13.4816 40.2775 12.7581C40.2775 12.0407 40.616 11.6212 41.2188 11.6212C41.8183 11.6212 42.16 12.0407 42.16 12.7581C42.16 13.4786 41.8183 13.8981 41.2188 13.8981Z" fill="white"/>
<path d="M48.2251 11.1044H47.532L46.9067 13.6306H46.8519L46.1299 11.1044H45.4659L44.7438 13.6306H44.6922L44.0637 11.1044H43.361L44.328 14.4149H45.0404L45.7624 11.9769H45.8172L46.5425 14.4149H47.2613L48.2251 11.1044Z" fill="white"/>
<path d="M49.0232 14.4149H49.7162V12.4785C49.7162 11.9617 50.0417 11.6395 50.5543 11.6395C51.0668 11.6395 51.3117 11.9039 51.3117 12.4359V14.4149H52.0048V12.2718C52.0048 11.4844 51.5728 11.0406 50.7896 11.0406C50.2609 11.0406 49.9128 11.2625 49.742 11.6303H49.6904V11.1044H49.0232V14.4149Z" fill="white"/>
<path d="M53.0962 14.4149H53.7892V9.8125H53.0962V14.4149Z" fill="white"/>
<path d="M56.3956 14.4787C57.4207 14.4787 58.0492 13.8312 58.0492 12.7581C58.0492 11.6911 57.4174 11.0406 56.3956 11.0406C55.3706 11.0406 54.7388 11.6911 54.7388 12.7581C54.7388 13.8312 55.3674 14.4787 56.3956 14.4787ZM56.3956 13.8981C55.7929 13.8981 55.4544 13.4816 55.4544 12.7581C55.4544 12.0407 55.7929 11.6212 56.3956 11.6212C56.9952 11.6212 57.3369 12.0407 57.3369 12.7581C57.3369 13.4786 56.9952 13.8981 56.3956 13.8981Z" fill="white"/>
<path d="M60.1141 13.9194C59.737 13.9194 59.463 13.7461 59.463 13.4482C59.463 13.1564 59.6822 13.0013 60.1657 12.9709L61.0231 12.9192V13.1959C61.0231 13.6063 60.6363 13.9194 60.1141 13.9194ZM59.9368 14.4696C60.3978 14.4696 60.7813 14.2811 60.9909 13.9498H61.0457V14.4149H61.7129V12.1532C61.7129 11.454 61.2165 11.0406 60.3365 11.0406C59.5403 11.0406 58.973 11.4054 58.9021 11.9738H59.5726C59.6499 11.7398 59.9175 11.606 60.3043 11.606C60.7781 11.606 61.0231 11.8036 61.0231 12.1532V12.4389L60.0722 12.4906C59.2374 12.5393 58.7667 12.8828 58.7667 13.4786C58.7667 14.0835 59.2599 14.4696 59.9368 14.4696Z" fill="white"/>
<path d="M64.0647 14.4696C64.5482 14.4696 64.9575 14.2537 65.167 13.892H65.2218V14.4149H65.8859V9.8125H65.1928V11.6303H65.1413C64.9511 11.2656 64.5449 11.0497 64.0647 11.0497C63.1782 11.0497 62.6077 11.7124 62.6077 12.7581C62.6077 13.8069 63.1718 14.4696 64.0647 14.4696ZM64.2613 11.6364C64.8415 11.6364 65.2057 12.0711 65.2057 12.7612C65.2057 13.4543 64.8447 13.8829 64.2613 13.8829C63.6746 13.8829 63.3233 13.4603 63.3233 12.7581C63.3233 12.062 63.6779 11.6364 64.2613 11.6364Z" fill="white"/>
<path d="M70.3799 14.4787C71.4049 14.4787 72.0335 13.8312 72.0335 12.7581C72.0335 11.6911 71.4017 11.0406 70.3799 11.0406C69.3548 11.0406 68.7231 11.6911 68.7231 12.7581C68.7231 13.8312 69.3516 14.4787 70.3799 14.4787ZM70.3799 13.8981C69.7771 13.8981 69.4387 13.4816 69.4387 12.7581C69.4387 12.0407 69.7771 11.6212 70.3799 11.6212C70.9794 11.6212 71.3211 12.0407 71.3211 12.7581C71.3211 13.4786 70.9794 13.8981 70.3799 13.8981Z" fill="white"/>
<path d="M72.9508 14.4149H73.6439V12.4785C73.6439 11.9617 73.9694 11.6395 74.4819 11.6395C74.9944 11.6395 75.2394 11.9039 75.2394 12.4359V14.4149H75.9324V12.2718C75.9324 11.4844 75.5005 11.0406 74.7172 11.0406C74.1886 11.0406 73.8405 11.2625 73.6696 11.6303H73.6181V11.1044H72.9508V14.4149Z" fill="white"/>
<path d="M79.1242 10.2806V11.1196H78.5666V11.6699H79.1242V13.5394C79.1242 14.1778 79.4304 14.4331 80.2008 14.4331C80.3362 14.4331 80.4651 14.4179 80.5779 14.3997V13.8555C80.4812 13.8646 80.42 13.8707 80.3136 13.8707C79.9687 13.8707 79.8172 13.7187 79.8172 13.3722V11.6699H80.5779V11.1196H79.8172V10.2806H79.1242Z" fill="white"/>
<path d="M81.5082 14.4149H82.2012V12.4815C82.2012 11.9799 82.5171 11.6425 83.0844 11.6425C83.5744 11.6425 83.8355 11.91 83.8355 12.4389V14.4149H84.5285V12.2778C84.5285 11.4905 84.0676 11.0436 83.3197 11.0436C82.7911 11.0436 82.4204 11.2656 82.2496 11.6364H82.1948V9.8125H81.5082V14.4149Z" fill="white"/>
<path d="M87.0285 11.5969C87.5411 11.5969 87.8763 11.9343 87.8924 12.4541H86.1196C86.1582 11.9374 86.516 11.5969 87.0285 11.5969ZM87.8892 13.5211C87.7602 13.7795 87.4734 13.9224 87.0543 13.9224C86.4999 13.9224 86.1421 13.5546 86.1196 12.974V12.9375H88.5983V12.7095C88.5983 11.6699 88.0084 11.0406 87.0318 11.0406C86.0422 11.0406 85.4136 11.7124 85.4136 12.7703C85.4136 13.8282 86.0293 14.4787 87.035 14.4787C87.8376 14.4787 88.3985 14.1139 88.5564 13.5211H87.8892Z" fill="white"/>
</svg>
