<svg width="40" height="40" viewBox="0 0 40 40" fill="none" xmlns="http://www.w3.org/2000/svg">
<path d="M13.75 8.75H10C9.30964 8.75 8.75 9.30964 8.75 10V30C8.75 30.6904 9.30964 31.25 10 31.25H13.75C14.4404 31.25 15 30.6904 15 30V10C15 9.30964 14.4404 8.75 13.75 8.75Z" stroke="black" stroke-width="2" stroke-linecap="round" stroke-linejoin="round"/>
<path d="M30 8.75H26.25C25.5596 8.75 25 9.30964 25 10V30C25 30.6904 25.5596 31.25 26.25 31.25H30C30.6904 31.25 31.25 30.6904 31.25 30V10C31.25 9.30964 30.6904 8.75 30 8.75Z" stroke="black" stroke-width="2" stroke-linecap="round" stroke-linejoin="round"/>
<path d="M31.25 12.5H35C35.3315 12.5 35.6495 12.6317 35.8839 12.8661C36.1183 13.1005 36.25 13.4185 36.25 13.75V26.25C36.25 26.5815 36.1183 26.8995 35.8839 27.1339C35.6495 27.3683 35.3315 27.5 35 27.5H31.25" stroke="black" stroke-width="2" stroke-linecap="round" stroke-linejoin="round"/>
<path d="M8.75 27.5H5C4.66848 27.5 4.35054 27.3683 4.11612 27.1339C3.8817 26.8995 3.75 26.5815 3.75 26.25V13.75C3.75 13.4185 3.8817 13.1005 4.11612 12.8661C4.35054 12.6317 4.66848 12.5 5 12.5H8.75" stroke="black" stroke-width="2" stroke-linecap="round" stroke-linejoin="round"/>
<path d="M15 20H25" stroke="black" stroke-width="2" stroke-linecap="round" stroke-linejoin="round"/>
<path d="M36.25 20H38.75" stroke="black" stroke-width="2" stroke-linecap="round" stroke-linejoin="round"/>
<path d="M1.25 20H3.75" stroke="black" stroke-width="2" stroke-linecap="round" stroke-linejoin="round"/>
</svg>
