<svg width="40" height="40" viewBox="0 0 40 40" fill="none" xmlns="http://www.w3.org/2000/svg">
<path d="M20 13.75V10" stroke="black" stroke-width="2" stroke-linecap="round" stroke-linejoin="round"/>
<path d="M20.0003 10C27.2191 7.5 20.0003 1.25 20.0003 1.25C20.0003 1.25 12.5003 7.5 20.0003 10Z" stroke="black" stroke-width="2" stroke-linecap="round" stroke-linejoin="round"/>
<path d="M25.3125 19.6875C25.3125 21.0965 24.7528 22.4477 23.7565 23.444C22.7602 24.4403 21.409 25 20 25C18.591 25 17.2398 24.4403 16.2435 23.444C15.2472 22.4477 14.6875 21.0965 14.6875 19.6875" stroke="black" stroke-width="2" stroke-linecap="round" stroke-linejoin="round"/>
<path d="M14.6875 19.6875C14.6878 21.0777 14.1432 22.4126 13.1704 23.4058C12.1977 24.399 10.8743 24.9714 9.48441 25C6.50003 25.0625 4.06253 22.5625 4.06253 19.5781V17.5C4.06047 17.0069 4.15605 16.5184 4.34377 16.0625C4.5315 15.6066 4.80764 15.1923 5.15627 14.8437C5.50491 14.4951 5.91912 14.2189 6.37503 14.0312C6.83093 13.8435 7.3195 13.7479 7.81253 13.75H32.1875C32.6806 13.7479 33.1691 13.8435 33.625 14.0312C34.0809 14.2189 34.4952 14.4951 34.8438 14.8437C35.1924 15.1923 35.4686 15.6066 35.6563 16.0625C35.844 16.5184 35.9396 17.0069 35.9375 17.5V19.5781C35.9375 22.5625 33.5 25.0625 30.5157 25C29.1257 24.9714 27.8024 24.399 26.8297 23.4058C25.8569 22.4126 25.3122 21.0777 25.3125 19.6875" stroke="black" stroke-width="2" stroke-linecap="round" stroke-linejoin="round"/>
<path d="M33.75 23.9531V32.5C33.75 32.8315 33.6183 33.1495 33.3839 33.3839C33.1495 33.6183 32.8315 33.75 32.5 33.75H7.5C7.16848 33.75 6.85054 33.6183 6.61612 33.3839C6.3817 33.1495 6.25 32.8315 6.25 32.5V23.9531" stroke="black" stroke-width="2" stroke-linecap="round" stroke-linejoin="round"/>
</svg>
