<svg width="40" height="40" viewBox="0 0 40 40" fill="none" xmlns="http://www.w3.org/2000/svg">
<path d="M5.92121 32.4832L14.3275 9.34258C14.3994 9.14457 14.5203 8.96795 14.6788 8.82915C14.8373 8.69035 15.0283 8.59386 15.2341 8.54865C15.4398 8.50344 15.6537 8.51098 15.8558 8.57056C16.0579 8.63014 16.2416 8.73984 16.39 8.88946L31.1087 23.6082C31.2583 23.7565 31.368 23.9403 31.4276 24.1424C31.4872 24.3445 31.4947 24.5583 31.4495 24.7641C31.4043 24.9699 31.3078 25.1609 31.169 25.3194C31.0302 25.4779 30.8536 25.5987 30.6556 25.6707L7.51496 34.077C7.29233 34.1621 7.04983 34.1809 6.81673 34.1312C6.58363 34.0815 6.36992 33.9653 6.20138 33.7968C6.03285 33.6282 5.91672 33.4145 5.867 33.1814C5.81728 32.9483 5.83611 32.7058 5.92121 32.4832V32.4832Z" stroke="black" stroke-width="2" stroke-linecap="round" stroke-linejoin="round"/>
<path d="M26.25 11.25C26.25 11.25 26.25 7.5 30 7.5C33.75 7.5 33.75 3.75 33.75 3.75" stroke="black" stroke-width="2" stroke-linecap="round" stroke-linejoin="round"/>
<path d="M16 31L9 24" stroke="black" stroke-width="2" stroke-linecap="round" stroke-linejoin="round"/>
<path d="M22.5 2.5V6.25" stroke="black" stroke-width="2" stroke-linecap="round" stroke-linejoin="round"/>
<path d="M33.75 17.5L36.25 20" stroke="black" stroke-width="2" stroke-linecap="round" stroke-linejoin="round"/>
<path d="M33.75 12.5L37.5 11.25" stroke="black" stroke-width="2" stroke-linecap="round" stroke-linejoin="round"/>
<path d="M12 15.75L24.25 28" stroke="black" stroke-width="2" stroke-linecap="round" stroke-linejoin="round"/>
</svg>
