<svg width="24" height="24" viewBox="0 0 24 24" fill="none" xmlns="http://www.w3.org/2000/svg">
<circle cx="12" cy="12" r="12" fill="white"/>
<path d="M8.10933 19C7.6971 19 7.34422 18.8532 7.0507 18.5597C6.75717 18.2662 6.61041 17.9133 6.61041 17.5011V6.97714H6.40312C6.22693 6.97714 6.07927 6.91751 5.96014 6.79825C5.84088 6.67899 5.78125 6.53126 5.78125 6.35506C5.78125 6.17872 5.84088 6.03106 5.96014 5.91208C6.07927 5.79296 6.22693 5.73339 6.40312 5.73339H9.51248C9.51248 5.53039 9.584 5.35737 9.72703 5.21434C9.86992 5.07145 10.0429 5 10.2459 5H13.7541C13.9571 5 14.13 5.07145 14.2729 5.21434C14.4159 5.35737 14.4875 5.53039 14.4875 5.73339H17.5968C17.773 5.73339 17.9207 5.79303 18.0398 5.91229C18.1591 6.03155 18.2187 6.17928 18.2187 6.35547C18.2187 6.53181 18.1591 6.67947 18.0398 6.79845C17.9207 6.91758 17.773 6.97714 17.5968 6.97714H17.3895V17.5011C17.3895 17.9133 17.2428 18.2662 16.9492 18.5597C16.6557 18.8532 16.3028 19 15.8906 19H8.10933ZM16.1458 6.97714H7.85416V17.5011C7.85416 17.5756 7.87806 17.6367 7.92588 17.6845C7.97369 17.7323 8.03485 17.7563 8.10933 17.7563H15.8906C15.9651 17.7563 16.0262 17.7323 16.0741 17.6845C16.1219 17.6367 16.1458 17.5756 16.1458 17.5011V6.97714ZM10.4695 16.0979C10.6457 16.0979 10.7934 16.0384 10.9125 15.9192C11.0315 15.8 11.091 15.6523 11.091 15.4761V9.25734C11.091 9.08114 11.0314 8.93341 10.9121 8.81415C10.793 8.69503 10.6453 8.63546 10.4689 8.63546C10.2927 8.63546 10.1451 8.69503 10.0259 8.81415C9.90696 8.93341 9.84746 9.08114 9.84746 9.25734V15.4761C9.84746 15.6523 9.90703 15.8 10.0261 15.9192C10.1454 16.0384 10.2932 16.0979 10.4695 16.0979ZM13.531 16.0979C13.7072 16.0979 13.8549 16.0384 13.974 15.9192C14.093 15.8 14.1525 15.6523 14.1525 15.4761V9.25734C14.1525 9.08114 14.0929 8.93341 13.9738 8.81415C13.8545 8.69503 13.7067 8.63546 13.5304 8.63546C13.3542 8.63546 13.2065 8.69503 13.0874 8.81415C12.9684 8.93341 12.9089 9.08114 12.9089 9.25734V15.4761C12.9089 15.6523 12.9686 15.8 13.0878 15.9192C13.207 16.0384 13.3547 16.0979 13.531 16.0979Z" fill="#E70000"/>
</svg>
