<svg width="24" height="24" viewBox="0 0 24 24" fill="none" xmlns="http://www.w3.org/2000/svg">
<path d="M12 17.7174C16.4183 17.7174 20 14.1357 20 9.71741C20 5.29913 16.4183 1.71741 12 1.71741C7.58172 1.71741 4 5.29913 4 9.71741C4 14.1357 7.58172 17.7174 12 17.7174Z" stroke="#009245" stroke-width="2" stroke-miterlimit="10"/>
<path d="M14.3984 10.4965L16.5161 8.25125L13.4832 7.67952L12.0022 4.97168L10.5212 7.67952L7.48828 8.25125L9.60596 10.4965L9.21244 13.5577L12.0022 12.2375L14.792 13.5577L14.3984 10.4965Z" stroke="#009245" stroke-width="2" stroke-miterlimit="10"/>
<path d="M6.24023 15.2686V19.7223C7.18095 19.7223 8.0534 19.433 8.7737 18.9385" stroke="#009245" stroke-width="2" stroke-miterlimit="10"/>
<path d="M17.7581 15.2686V19.7223C16.8174 19.7223 15.9449 19.433 15.2246 18.9385" stroke="#009245" stroke-width="2" stroke-miterlimit="10"/>
<path d="M8.80078 17.0519V22.2833C10.0551 22.2833 11.1879 21.7689 12.0008 20.9397C12.8136 21.7689 13.9465 22.2833 15.2008 22.2833V17.0516" stroke="#009245" stroke-width="2" stroke-miterlimit="10"/>
</svg>
