<svg width="32" height="32" viewBox="0 0 32 32" fill="none" xmlns="http://www.w3.org/2000/svg">
<g clip-path="url(#clip0_335_966)">
<path d="M32 15.9893C32 7.1527 24.8366 -0.0107422 16 -0.0107422C7.16344 -0.0107422 0 7.1527 0 15.9893C0 23.9753 5.85097 30.5946 13.5 31.7948V20.6143H9.4375V15.9893H13.5V12.4643C13.5 8.45425 15.8887 6.23926 19.5434 6.23926C21.294 6.23926 23.125 6.55176 23.125 6.55176V10.4893H21.1074C19.1198 10.4893 18.5 11.7226 18.5 12.9879V15.9893H22.9375L22.2281 20.6143H18.5V31.7948C26.149 30.5946 32 23.9753 32 15.9893Z" fill="#1877F2"/>
<path d="M22.2281 20.625L22.9375 16H18.5V12.9987C18.5 11.7333 19.1198 10.5 21.1074 10.5H23.125V6.5625C23.125 6.5625 21.294 6.25 19.5434 6.25C15.8887 6.25 13.5 8.46499 13.5 12.475V16H9.4375V20.625H13.5V31.8056C15.1566 32.0648 16.8434 32.0648 18.5 31.8056V20.625H22.2281Z" fill="white"/>
</g>
<defs>
<clipPath id="clip0_335_966">
<rect width="32" height="32" fill="white"/>
</clipPath>
</defs>
</svg>
