<svg width="117" height="41" viewBox="0 0 117 41" fill="none" xmlns="http://www.w3.org/2000/svg">
<rect width="117" height="40.0773" rx="5" fill="#090909"/>
<g filter="url(#filter0_ii_250_460)">
<path d="M11.6776 10.1484C11.4248 10.3952 11.2754 10.7784 11.2754 11.2745V29.0015C11.2754 29.4985 11.4248 29.8808 11.6776 30.1277L11.7419 30.1854L22.505 20.2551V20.138V20.021L11.7419 10.0898L11.6776 10.1484Z" fill="url(#paint0_linear_250_460)"/>
<path d="M26.092 23.5627L22.5049 20.2515V20.1344V20.0174L26.0929 16.707L26.1737 16.7495L30.4245 18.9778C31.6382 19.6142 31.6382 20.6555 30.4245 21.2927L26.1737 23.521L26.092 23.5627Z" fill="url(#paint1_linear_250_460)"/>
<g filter="url(#filter1_i_250_460)">
<path d="M26.1739 23.5225L22.5042 20.1367L11.6777 30.1264C12.0774 30.5176 12.7385 30.5656 13.483 30.1761L26.1739 23.5225Z" fill="url(#paint2_linear_250_460)"/>
</g>
<path d="M26.1736 16.7503L13.4828 10.0975C12.7382 9.70715 12.0771 9.75605 11.6775 10.1472L22.5049 20.1369L26.1736 16.7503Z" fill="url(#paint3_linear_250_460)"/>
</g>
<path d="M58.6324 21.1079C56.7026 21.1079 55.1296 22.4563 55.1296 24.3135C55.1296 26.1593 56.7026 27.519 58.6324 27.519C60.5631 27.519 62.136 26.1593 62.136 24.3135C62.1352 22.4563 60.5623 21.1079 58.6324 21.1079ZM58.6324 26.2573C57.5748 26.2573 56.6632 25.4561 56.6632 24.3142C56.6632 23.1603 57.5756 22.3712 58.6324 22.3712C59.6901 22.3712 60.6017 23.1603 60.6017 24.3142C60.6017 25.4553 59.6901 26.2573 58.6324 26.2573ZM50.9901 21.1079C49.0603 21.1079 47.4874 22.4563 47.4874 24.3135C47.4874 26.1593 49.0603 27.519 50.9901 27.519C52.9208 27.519 54.4937 26.1593 54.4937 24.3135C54.4937 22.4563 52.9208 21.1079 50.9901 21.1079ZM50.9901 26.2573C49.9325 26.2573 49.0209 25.4561 49.0209 24.3142C49.0209 23.1603 49.9333 22.3712 50.9901 22.3712C52.0478 22.3712 52.9594 23.1603 52.9594 24.3142C52.9602 25.4553 52.0478 26.2573 50.9901 26.2573ZM41.9005 22.0923V23.452H45.4435C45.3376 24.217 45.0603 24.7755 44.6369 25.1637C44.1216 25.637 43.315 26.1593 41.9005 26.1593C39.7195 26.1593 38.0145 24.5441 38.0145 22.5408C38.0145 20.5374 39.7195 18.9222 41.9005 18.9222C43.0771 18.9222 43.9362 19.3473 44.5704 19.8937L45.6149 18.9343C44.7288 18.1572 43.553 17.5625 41.9005 17.5625C38.913 17.5625 36.4014 19.7965 36.4014 22.5408C36.4014 25.285 38.913 27.519 41.9005 27.519C43.5128 27.519 44.7296 27.0329 45.6806 26.1224C46.6586 25.224 46.9631 23.9607 46.9631 22.941C46.9631 22.6259 46.9368 22.3342 46.8835 22.0915L41.9005 22.0923ZM79.0764 23.1482C78.7859 22.4322 77.8998 21.1079 76.0889 21.1079C74.2912 21.1079 72.797 22.4073 72.797 24.3135C72.797 26.1103 74.278 27.519 76.2604 27.519C77.8596 27.519 78.7851 26.6206 79.1691 26.0983L77.9794 25.3694C77.5831 25.9038 77.0407 26.2558 76.2604 26.2558C75.4809 26.2558 74.9254 25.9279 74.5685 25.2843L79.2348 23.5115L79.0764 23.1482ZM74.3174 24.217C74.278 22.9779 75.3619 22.347 76.1422 22.347C76.7502 22.347 77.2655 22.6267 77.4378 23.0269L74.3174 24.217ZM70.5242 27.3253H72.0569V17.9032H70.5242V27.3253ZM68.0118 21.8247H67.9592C67.6154 21.4479 66.9541 21.1079 66.1221 21.1079C64.3769 21.1079 62.7777 22.5166 62.7777 24.3263C62.7777 26.1231 64.3769 27.5198 66.1221 27.5198C66.9549 27.5198 67.6154 27.1798 67.9592 26.7917H68.0118V27.2529C68.0118 28.4792 67.2979 29.135 66.1484 29.135C65.2097 29.135 64.6279 28.5162 64.39 27.9938L63.055 28.5041C63.4382 29.3535 64.4556 30.3982 66.1484 30.3982C67.9461 30.3982 69.4665 29.4266 69.4665 27.0585V21.3032H68.0126L68.0118 21.8247ZM66.2542 26.2573C65.1966 26.2573 64.3112 25.4433 64.3112 24.3263C64.3112 23.1965 65.1966 22.3712 66.2542 22.3712C67.2979 22.3712 68.1176 23.1965 68.1176 24.3263C68.1176 25.4433 67.2979 26.2573 66.2542 26.2573ZM86.2592 17.9032H82.5907V27.3253H84.1209V23.7557H86.2584C87.9552 23.7557 89.6241 22.6274 89.6241 20.8298C89.6241 19.0322 87.956 17.9032 86.2592 17.9032ZM86.2986 22.4443H84.1209V19.2146H86.2986C87.4432 19.2146 88.0931 20.0852 88.0931 20.8298C88.0931 21.5594 87.4432 22.4443 86.2986 22.4443ZM95.7608 21.0914C94.6523 21.0914 93.5044 21.5398 93.0293 22.534L94.3881 23.0548C94.6785 22.534 95.2201 22.3636 95.787 22.3636C96.5788 22.3636 97.3838 22.8 97.3969 23.5756V23.6728C97.1196 23.5274 96.5255 23.3095 95.8002 23.3095C94.3355 23.3095 92.8438 24.0489 92.8438 25.4305C92.8438 26.6914 94.0451 27.5032 95.3907 27.5032C96.4197 27.5032 96.9875 27.0788 97.3436 26.5814H97.3961V27.3087H98.8746V23.6962C98.8755 22.0245 97.515 21.0914 95.7608 21.0914ZM95.5754 26.255C95.0748 26.255 94.3749 26.0244 94.3749 25.4546C94.3749 24.7273 95.2463 24.4484 95.9987 24.4484C96.6707 24.4484 96.9883 24.5818 97.3969 24.7634C97.2779 25.637 96.4599 26.255 95.5754 26.255ZM104.259 21.2971L102.504 25.3822H102.451L100.63 21.2971H98.9805L101.712 27.0065L100.155 30.1826H101.751L105.961 21.2971H104.259ZM90.4693 27.3253H91.9995V17.9032H90.4693V27.3253Z" fill="white"/>
<path d="M41.7094 12.328C41.7094 12.9482 41.5061 13.4418 41.0986 13.8103C40.6363 14.2484 40.0329 14.4675 39.2918 14.4675C38.5819 14.4675 37.9777 14.2455 37.4818 13.8014C36.985 13.3567 36.7366 12.8061 36.7366 12.1489C36.7366 11.491 36.985 10.9404 37.4818 10.4964C37.9777 10.0516 38.5819 9.82957 39.2918 9.82957C39.6443 9.82957 39.9813 9.89174 40.301 10.0153C40.6215 10.1397 40.8781 10.3047 41.0699 10.5112L40.6379 10.9019C40.3125 10.5504 39.864 10.375 39.291 10.375C38.7729 10.375 38.3253 10.5393 37.9474 10.8679C37.5695 11.1965 37.3809 11.6235 37.3809 12.1482C37.3809 12.6729 37.5695 13.0999 37.9474 13.4285C38.3253 13.757 38.7729 13.9213 39.291 13.9213C39.8403 13.9213 40.2985 13.7563 40.665 13.4255C40.9027 13.2101 41.0404 12.9104 41.0773 12.5263H39.291V11.9927H41.6741C41.6987 12.1089 41.7094 12.2207 41.7094 12.328Z" fill="white"/>
<path d="M45.4886 10.4735H43.249V11.881H45.2689V12.4146H43.249V13.8222H45.4886V14.3684H42.6169V9.92804H45.4886V10.4735Z" fill="white"/>
<path d="M48.1537 14.3684H47.5216V10.4735H46.1476V9.92804H49.5276V10.4735H48.1537V14.3684Z" fill="white"/>
<path d="M51.973 14.3684V9.92804H52.605V14.3684H51.973Z" fill="white"/>
<path d="M55.408 14.3684H54.7759V10.4735H53.402V9.92804H56.782V10.4735H55.408V14.3684Z" fill="white"/>
<path d="M63.1802 13.7948C62.6965 14.2433 62.0956 14.4675 61.3766 14.4675C60.6577 14.4675 60.0568 14.2433 59.5739 13.7948C59.0903 13.3463 58.8493 12.7972 58.8493 12.1482C58.8493 11.4992 59.0903 10.95 59.5739 10.5016C60.0568 10.0531 60.6577 9.82812 61.3766 9.82812C62.0915 9.82812 62.6916 10.0538 63.1769 10.5045C63.6622 10.9552 63.9048 11.5029 63.9048 12.1482C63.9048 12.7972 63.663 13.3463 63.1802 13.7948ZM60.0404 13.4226C60.4044 13.7556 60.8495 13.9214 61.3766 13.9214C61.9038 13.9214 62.3497 13.7549 62.7129 13.4226C63.0769 13.0895 63.2597 12.6648 63.2597 12.1482C63.2597 11.6316 63.0769 11.2068 62.7129 10.8738C62.3497 10.5408 61.9038 10.375 61.3766 10.375C60.8495 10.375 60.4044 10.5415 60.0404 10.8738C59.6772 11.2068 59.4944 11.6316 59.4944 12.1482C59.4944 12.6648 59.6772 13.0895 60.0404 13.4226Z" fill="white"/>
<path d="M64.7919 14.3684V9.92804H65.5608L67.9513 13.3819H67.9784L67.9513 12.5264V9.92804H68.5834V14.3684H67.9234L65.4223 10.7465H65.3952L65.4223 11.602V14.3684H64.7919Z" fill="white"/>
<path d="M41.7094 12.328C41.7094 12.9482 41.5061 13.4418 41.0986 13.8103C40.6363 14.2484 40.0329 14.4675 39.2918 14.4675C38.5819 14.4675 37.9777 14.2455 37.4818 13.8014C36.985 13.3567 36.7366 12.8061 36.7366 12.1489C36.7366 11.491 36.985 10.9404 37.4818 10.4964C37.9777 10.0516 38.5819 9.82957 39.2918 9.82957C39.6443 9.82957 39.9813 9.89174 40.301 10.0153C40.6215 10.1397 40.8781 10.3047 41.0699 10.5112L40.6379 10.9019C40.3125 10.5504 39.864 10.375 39.291 10.375C38.7729 10.375 38.3253 10.5393 37.9474 10.8679C37.5695 11.1965 37.3809 11.6235 37.3809 12.1482C37.3809 12.6729 37.5695 13.0999 37.9474 13.4285C38.3253 13.757 38.7729 13.9213 39.291 13.9213C39.8403 13.9213 40.2985 13.7563 40.665 13.4255C40.9027 13.2101 41.0404 12.9104 41.0773 12.5263H39.291V11.9927H41.6741C41.6987 12.1089 41.7094 12.2207 41.7094 12.328Z" stroke="white" stroke-width="0.0680073" stroke-miterlimit="10"/>
<path d="M45.4886 10.4735H43.249V11.881H45.2689V12.4146H43.249V13.8222H45.4886V14.3684H42.6169V9.92804H45.4886V10.4735Z" stroke="white" stroke-width="0.0680073" stroke-miterlimit="10"/>
<path d="M48.1537 14.3684H47.5216V10.4735H46.1476V9.92804H49.5276V10.4735H48.1537V14.3684Z" stroke="white" stroke-width="0.0680073" stroke-miterlimit="10"/>
<path d="M51.973 14.3684V9.92804H52.605V14.3684H51.973Z" stroke="white" stroke-width="0.0680073" stroke-miterlimit="10"/>
<path d="M55.408 14.3684H54.7759V10.4735H53.402V9.92804H56.782V10.4735H55.408V14.3684Z" stroke="white" stroke-width="0.0680073" stroke-miterlimit="10"/>
<path d="M63.1802 13.7948C62.6965 14.2433 62.0956 14.4675 61.3766 14.4675C60.6577 14.4675 60.0568 14.2433 59.5739 13.7948C59.0903 13.3463 58.8493 12.7972 58.8493 12.1482C58.8493 11.4992 59.0903 10.95 59.5739 10.5016C60.0568 10.0531 60.6577 9.82812 61.3766 9.82812C62.0915 9.82812 62.6916 10.0538 63.1769 10.5045C63.6622 10.9552 63.9048 11.5029 63.9048 12.1482C63.9048 12.7972 63.663 13.3463 63.1802 13.7948ZM60.0404 13.4226C60.4044 13.7556 60.8495 13.9214 61.3766 13.9214C61.9038 13.9214 62.3497 13.7549 62.7129 13.4226C63.0769 13.0895 63.2597 12.6648 63.2597 12.1482C63.2597 11.6316 63.0769 11.2068 62.7129 10.8738C62.3497 10.5408 61.9038 10.375 61.3766 10.375C60.8495 10.375 60.4044 10.5415 60.0404 10.8738C59.6772 11.2068 59.4944 11.6316 59.4944 12.1482C59.4944 12.6648 59.6772 13.0895 60.0404 13.4226Z" stroke="white" stroke-width="0.0680073" stroke-miterlimit="10"/>
<path d="M64.7919 14.3684V9.92804H65.5608L67.9513 13.3819H67.9784L67.9513 12.5264V9.92804H68.5834V14.3684H67.9234L65.4223 10.7465H65.3952L65.4223 11.602V14.3684H64.7919Z" stroke="white" stroke-width="0.0680073" stroke-miterlimit="10"/>
<defs>
<filter id="filter0_ii_250_460" x="11.2754" y="9.82812" width="20.0593" height="20.6172" filterUnits="userSpaceOnUse" color-interpolation-filters="sRGB">
<feFlood flood-opacity="0" result="BackgroundImageFix"/>
<feBlend mode="normal" in="SourceGraphic" in2="BackgroundImageFix" result="shape"/>
<feColorMatrix in="SourceAlpha" type="matrix" values="0 0 0 0 0 0 0 0 0 0 0 0 0 0 0 0 0 0 127 0" result="hardAlpha"/>
<feOffset dy="-0.264366"/>
<feComposite in2="hardAlpha" operator="arithmetic" k2="-1" k3="1"/>
<feColorMatrix type="matrix" values="0 0 0 0 0 0 0 0 0 0 0 0 0 0 0 0 0 0 0.12 0"/>
<feBlend mode="normal" in2="shape" result="effect1_innerShadow_250_460"/>
<feColorMatrix in="SourceAlpha" type="matrix" values="0 0 0 0 0 0 0 0 0 0 0 0 0 0 0 0 0 0 127 0" result="hardAlpha"/>
<feOffset dy="0.264366"/>
<feComposite in2="hardAlpha" operator="arithmetic" k2="-1" k3="1"/>
<feColorMatrix type="matrix" values="0 0 0 0 1 0 0 0 0 1 0 0 0 0 1 0 0 0 0.25 0"/>
<feBlend mode="normal" in2="effect1_innerShadow_250_460" result="effect2_innerShadow_250_460"/>
</filter>
<filter id="filter1_i_250_460" x="11.6777" y="20.1367" width="14.4961" height="10.3086" filterUnits="userSpaceOnUse" color-interpolation-filters="sRGB">
<feFlood flood-opacity="0" result="BackgroundImageFix"/>
<feBlend mode="normal" in="SourceGraphic" in2="BackgroundImageFix" result="shape"/>
<feColorMatrix in="SourceAlpha" type="matrix" values="0 0 0 0 0 0 0 0 0 0 0 0 0 0 0 0 0 0 127 0" result="hardAlpha"/>
<feOffset dy="-0.264366"/>
<feComposite in2="hardAlpha" operator="arithmetic" k2="-1" k3="1"/>
<feColorMatrix type="matrix" values="0 0 0 0 0 0 0 0 0 0 0 0 0 0 0 0 0 0 0.08 0"/>
<feBlend mode="normal" in2="shape" result="effect1_innerShadow_250_460"/>
</filter>
<linearGradient id="paint0_linear_250_460" x1="21.5509" y1="11.087" x2="8.14285" y2="25.6194" gradientUnits="userSpaceOnUse">
<stop stop-color="#00A0FF"/>
<stop offset="0.0066" stop-color="#00A1FF"/>
<stop offset="0.2601" stop-color="#00BEFF"/>
<stop offset="0.5122" stop-color="#00D2FF"/>
<stop offset="0.7604" stop-color="#00DFFF"/>
<stop offset="1" stop-color="#00E3FF"/>
</linearGradient>
<linearGradient id="paint1_linear_250_460" x1="32.0043" y1="20.1344" x2="10.9839" y2="20.1344" gradientUnits="userSpaceOnUse">
<stop stop-color="#FFE000"/>
<stop offset="0.4087" stop-color="#FFBD00"/>
<stop offset="0.7754" stop-color="#FFA500"/>
<stop offset="1" stop-color="#FF9C00"/>
</linearGradient>
<linearGradient id="paint2_linear_250_460" x1="24.181" y1="21.9754" x2="5.99801" y2="41.6832" gradientUnits="userSpaceOnUse">
<stop stop-color="#FF3A44"/>
<stop offset="1" stop-color="#C31162"/>
</linearGradient>
<linearGradient id="paint3_linear_250_460" x1="8.9508" y1="4.24605" x2="17.07" y2="13.0461" gradientUnits="userSpaceOnUse">
<stop stop-color="#32A071"/>
<stop offset="0.0685" stop-color="#2DA771"/>
<stop offset="0.4762" stop-color="#15CF74"/>
<stop offset="0.8009" stop-color="#06E775"/>
<stop offset="1" stop-color="#00F076"/>
</linearGradient>
</defs>
</svg>
