<svg width="40" height="40" viewBox="0 0 40 40" fill="none" xmlns="http://www.w3.org/2000/svg">
<path d="M8.09336 19.0473C7.90869 18.7272 7.66278 18.4466 7.36967 18.2216C7.07656 17.9965 6.74199 17.8314 6.38506 17.7356C6.02814 17.6399 5.65585 17.6154 5.28944 17.6635C4.92304 17.7116 4.56971 17.8314 4.24961 18.0161C3.92951 18.2008 3.64892 18.4467 3.42386 18.7398C3.1988 19.0329 3.03368 19.3675 2.93792 19.7244C2.84216 20.0813 2.81764 20.4536 2.86575 20.82C2.91387 21.1864 3.03369 21.5397 3.21836 21.8598L8.99961 31.8755C10.5067 34.4288 12.9609 36.284 15.8286 37.0375C18.6962 37.7911 21.7454 37.3821 24.3131 35.8996C26.8808 34.417 28.7594 31.9808 29.5405 29.1205C30.3215 26.2602 29.9418 23.2073 28.484 20.6255L25.8277 16.0161C25.4319 15.4191 24.8231 14.9956 24.1257 14.8321C23.4283 14.6686 22.6948 14.7773 22.0748 15.1361C21.4549 15.495 20.9952 16.0768 20.7896 16.763C20.5839 17.4492 20.6479 18.1879 20.9684 18.8286" stroke="black" stroke-width="2" stroke-linecap="round" stroke-linejoin="round"/>
<path d="M16.7184 22.7359L10.7809 12.4547C10.5962 12.1346 10.3503 11.854 10.0572 11.6289C9.76406 11.4039 9.42949 11.2388 9.07256 11.143C8.71564 11.0472 8.34335 11.0227 7.97694 11.0708C7.61054 11.119 7.25721 11.2388 6.93711 11.4234C6.61701 11.6081 6.33642 11.854 6.11136 12.1471C5.8863 12.4402 5.72118 12.7748 5.62542 13.1317C5.52966 13.4887 5.50514 13.8609 5.55325 14.2274C5.60137 14.5938 5.72119 14.9471 5.90586 15.2672L11.8434 25.5484" stroke="black" stroke-width="2" stroke-linecap="round" stroke-linejoin="round"/>
<path d="M23.4684 23.1734L16.9059 11.7984C16.5329 11.152 15.9184 10.6801 15.1976 10.4868C14.4767 10.2934 13.7086 10.3942 13.0621 10.7672C12.4157 11.1402 11.9438 11.7546 11.7504 12.4755C11.557 13.1963 11.6579 13.9645 12.0309 14.6109" stroke="black" stroke-width="2" stroke-linecap="round" stroke-linejoin="round"/>
<path d="M15.4684 10.5797L13.859 7.78282C13.486 7.13635 12.8715 6.66452 12.1507 6.47113C11.4299 6.27773 10.6617 6.37861 10.0152 6.75157C9.36878 7.12453 8.89695 7.73902 8.70355 8.45987C8.51015 9.18071 8.61103 9.94885 8.98399 10.5953L9.35899 11.2359" stroke="black" stroke-width="2" stroke-linecap="round" stroke-linejoin="round"/>
<path d="M29.3746 29.9234C31.2816 28.1966 32.5402 25.8691 32.941 23.3278C33.3418 20.7865 32.8607 18.1846 31.5777 15.9547L28.9215 11.3609C28.7368 11.0408 28.4909 10.7603 28.1978 10.5352C27.9047 10.3101 27.5701 10.145 27.2132 10.0492C26.8563 9.95349 26.484 9.92896 26.1176 9.97708C25.7512 10.0252 25.3978 10.145 25.0777 10.3297C24.7576 10.5144 24.477 10.7603 24.252 11.0534C24.0269 11.3465 23.8618 11.6811 23.766 12.038C23.6703 12.3949 23.6458 12.7672 23.6939 13.1336C23.742 13.5 23.8618 13.8533 24.0465 14.1734" stroke="black" stroke-width="2" stroke-linecap="round" stroke-linejoin="round"/>
<path d="M24.4059 14.7984L19.984 7.14219C19.611 6.49573 18.9965 6.0239 18.2757 5.8305C17.5549 5.63711 16.7867 5.73798 16.1402 6.11094C15.4938 6.4839 15.0219 7.0984 14.8285 7.81924C14.6352 8.54008 14.736 9.30823 15.109 9.95469" stroke="black" stroke-width="2" stroke-linecap="round" stroke-linejoin="round"/>
<path d="M27.625 1.76562L26.9844 4.17188" stroke="black" stroke-width="2" stroke-linecap="round" stroke-linejoin="round"/>
<path d="M32.3594 3.96875L30.9219 6.01563" stroke="black" stroke-width="2" stroke-linecap="round" stroke-linejoin="round"/>
<path d="M36.0313 7.64062L33.9844 9.07812" stroke="black" stroke-width="2" stroke-linecap="round" stroke-linejoin="round"/>
</svg>
