<svg width="26" height="26" viewBox="0 0 26 26" fill="none" xmlns="http://www.w3.org/2000/svg">
<rect x="25.5" y="25.5" width="25" height="25" rx="12.5" transform="rotate(-180 25.5 25.5)" fill="white"/>
<rect x="25.5" y="25.5" width="25" height="25" rx="12.5" transform="rotate(-180 25.5 25.5)" stroke="#E2E8F0"/>
<mask id="mask0_1843_23702" style="mask-type:alpha" maskUnits="userSpaceOnUse" x="5" y="5" width="16" height="16">
<rect x="5" y="5" width="16" height="16" fill="#D9D9D9"/>
</mask>
<g mask="url(#mask0_1843_23702)">
<path d="M13.0007 9.66634C12.6768 9.66634 12.4013 9.5529 12.1743 9.32601C11.9474 9.09901 11.834 8.82356 11.834 8.49967C11.834 8.17579 11.9474 7.90034 12.1743 7.67334C12.4013 7.44645 12.6768 7.33301 13.0007 7.33301C13.3245 7.33301 13.6 7.44645 13.827 7.67334C14.0539 7.90034 14.1673 8.17579 14.1673 8.49967C14.1673 8.82356 14.0539 9.09901 13.827 9.32601C13.6 9.5529 13.3245 9.66634 13.0007 9.66634ZM13.0015 18.6663C12.7702 18.6663 12.5733 18.5853 12.411 18.4233C12.2485 18.2612 12.1673 18.0645 12.1673 17.833V12.0895C12.1673 11.858 12.2483 11.6612 12.4102 11.4992C12.572 11.3372 12.7686 11.2562 12.9998 11.2562C13.2312 11.2562 13.428 11.3372 13.5903 11.4992C13.7528 11.6612 13.834 11.858 13.834 12.0895V17.833C13.834 18.0645 13.753 18.2612 13.5912 18.4233C13.4293 18.5853 13.2327 18.6663 13.0015 18.6663Z" fill="#1C1B1F"/>
</g>
</svg>
