<svg width="32" height="32" viewBox="0 0 32 32" fill="none" xmlns="http://www.w3.org/2000/svg">
<path d="M0.287109 16C0.287109 5.92257 4.06613 2.14355 14.1435 2.14355C24.2209 2.14355 27.9999 5.92257 27.9999 16C27.9999 26.0773 24.2209 29.8564 14.1435 29.8564C4.06613 29.8564 0.287109 26.0773 0.287109 16Z" fill="url(#paint0_radial_335_984)"/>
<path d="M13.9994 20.4482H13.7594C12.6646 20.379 11.6327 19.9129 10.8571 19.1372C10.0814 18.3616 9.61528 17.3297 9.54607 16.2349C9.51205 15.6301 9.60215 15.0248 9.81081 14.4561C10.0195 13.8874 10.3423 13.3675 10.7594 12.9282C11.1831 12.5009 11.6881 12.1628 12.2445 11.9338C12.801 11.7048 13.3977 11.5896 13.9994 11.5949C14.7284 11.5943 15.4464 11.7728 16.0904 12.1145C16.7344 12.4562 17.2846 12.9508 17.6927 13.5549C18.1841 14.2741 18.4488 15.1239 18.4527 15.9949C18.4581 16.5966 18.3428 17.1933 18.1138 17.7498C17.8848 18.3062 17.5467 18.8112 17.1194 19.2349C16.2768 20.0297 15.1576 20.4649 13.9994 20.4482ZM13.9994 13.2482C13.6334 13.2602 13.2734 13.3448 12.9404 13.4973C12.6074 13.6498 12.3081 13.867 12.0599 14.1363C11.8118 14.4055 11.6196 14.7215 11.4948 15.0658C11.3699 15.4101 11.3148 15.7758 11.3327 16.1416C11.3681 16.8161 11.6519 17.4537 12.1296 17.9314C12.6072 18.409 13.2448 18.6929 13.9194 18.7282C14.2852 18.7371 14.6491 18.6731 14.9899 18.5401C15.3308 18.407 15.6417 18.2075 15.9048 17.9531C16.1678 17.6988 16.3776 17.3947 16.5221 17.0585C16.6665 16.7223 16.7426 16.3608 16.7461 15.9949C16.741 15.4496 16.5789 14.9173 16.2794 14.4616C16.0263 14.0895 15.6865 13.7847 15.2893 13.5733C14.892 13.3619 14.4494 13.2503 13.9994 13.2482ZM19.8927 11.1682C19.8927 11.3792 19.8302 11.5854 19.713 11.7608C19.5958 11.9362 19.4292 12.073 19.2343 12.1537C19.0394 12.2344 18.8249 12.2556 18.618 12.2144C18.4111 12.1732 18.221 12.0717 18.0718 11.9225C17.9226 11.7733 17.8211 11.5832 17.7799 11.3763C17.7387 11.1694 17.7599 10.9549 17.8406 10.76C17.9213 10.5651 18.058 10.3985 18.2335 10.2813C18.4089 10.1641 18.6151 10.1016 18.8261 10.1016C18.9686 10.1054 19.109 10.1371 19.2394 10.1949C19.4315 10.2756 19.5957 10.4108 19.7118 10.5838C19.8279 10.7567 19.8908 10.9599 19.8927 11.1682Z" fill="white"/>
<path d="M17.5068 24.8574H10.4935C9.079 24.8574 7.72245 24.2955 6.72225 23.2953C5.72206 22.2951 5.16016 20.9386 5.16016 19.5241V12.4974C5.16016 11.0829 5.72206 9.72635 6.72225 8.72616C7.72245 7.72597 9.079 7.16406 10.4935 7.16406H17.5068C18.9213 7.16406 20.2779 7.72597 21.2781 8.72616C22.2783 9.72635 22.8402 11.0829 22.8402 12.4974V19.5107C22.8419 20.2122 22.7053 20.9072 22.438 21.5558C22.1708 22.2044 21.7782 22.7939 21.2828 23.2906C20.7874 23.7872 20.1988 24.1813 19.5509 24.4501C18.9029 24.719 18.2083 24.8574 17.5068 24.8574ZM10.4935 8.8574C9.52918 8.86091 8.60537 9.24554 7.9235 9.92741C7.24163 10.6093 6.857 11.5331 6.85349 12.4974V19.5107C6.857 20.475 7.24163 21.3988 7.9235 22.0807C8.60537 22.7626 9.52918 23.1472 10.4935 23.1507H17.5068C18.4711 23.1472 19.3949 22.7626 20.0768 22.0807C20.7587 21.3988 21.1433 20.475 21.1468 19.5107V12.4974C21.1433 11.5331 20.7587 10.6093 20.0768 9.92741C19.3949 9.24554 18.4711 8.86091 17.5068 8.8574H10.4935Z" fill="white"/>
<defs>
<radialGradient id="paint0_radial_335_984" cx="0" cy="0" r="1" gradientUnits="userSpaceOnUse" gradientTransform="translate(14.1435 16) scale(44.8066)">
<stop offset="0.17" stop-color="#FFC900"/>
<stop offset="0.2" stop-color="#FFAD15"/>
<stop offset="0.3" stop-color="#FF5658"/>
<stop offset="0.34" stop-color="#FF3372"/>
<stop offset="0.43" stop-color="#EC2799"/>
<stop offset="0.49" stop-color="#DF20B3"/>
<stop offset="0.61" stop-color="#1820F1"/>
<stop offset="0.62" stop-color="#0020F9"/>
</radialGradient>
</defs>
</svg>
