<svg width="32" height="32" viewBox="0 0 32 32" fill="none" xmlns="http://www.w3.org/2000/svg">
<g clip-path="url(#clip0_335_976)">
<path d="M16 32C24.8366 32 32 24.8366 32 16C32 7.16344 24.8366 0 16 0C7.16344 0 0 7.16344 0 16C0 24.8366 7.16344 32 16 32Z" fill="#007AB9"/>
<path d="M25.5594 17.2892V23.8857H21.7349V17.7313C21.7349 16.186 21.1827 15.1307 19.798 15.1307C18.7413 15.1307 18.1135 15.8412 17.8363 16.5291C17.7356 16.775 17.7097 17.1164 17.7097 17.4612V23.8854H13.8849C13.8849 23.8854 13.9363 13.4619 13.8849 12.383H17.71V14.013C17.7023 14.0258 17.6914 14.0384 17.6846 14.0506H17.71V14.013C18.2182 13.2309 19.1246 12.1129 21.1568 12.1129C23.6729 12.1129 25.5594 13.7568 25.5594 17.2892ZM9.88394 6.83838C8.57566 6.83838 7.71973 7.69716 7.71973 8.82547C7.71973 9.92983 8.55084 10.8134 9.83374 10.8134H9.85856C11.1925 10.8134 12.0219 9.92983 12.0219 8.82547C11.9965 7.69716 11.1925 6.83838 9.88394 6.83838ZM7.94704 23.8857H11.7704V12.383H7.94704V23.8857Z" fill="#F1F2F2"/>
</g>
<defs>
<clipPath id="clip0_335_976">
<rect width="32" height="32" fill="white"/>
</clipPath>
</defs>
</svg>
