<svg width="24" height="24" viewBox="0 0 24 24" fill="none" xmlns="http://www.w3.org/2000/svg">
<circle cx="12" cy="12" r="12" fill="white"/>
<mask id="mask0_425_760" style="mask-type:alpha" maskUnits="userSpaceOnUse" x="4" y="4" width="16" height="16">
<rect x="4" y="4" width="16" height="16" fill="#D9D9D9"/>
</mask>
<g mask="url(#mask0_425_760)">
<path d="M7.33203 16.6663H8.17303L14.9974 9.84201L14.1564 9.00101L7.33203 15.8253V16.6663ZM6.9347 17.6663C6.76392 17.6663 6.62081 17.6086 6.50536 17.493C6.38981 17.3776 6.33203 17.2345 6.33203 17.0637V15.9087C6.33203 15.7461 6.36325 15.5912 6.4257 15.4438C6.48803 15.2965 6.57392 15.1681 6.68336 15.0587L15.1257 6.62017C15.2265 6.52862 15.3378 6.4579 15.4595 6.40801C15.5814 6.35801 15.7092 6.33301 15.8429 6.33301C15.9765 6.33301 16.106 6.35673 16.2312 6.40417C16.3565 6.45162 16.4675 6.52706 16.564 6.63051L17.3782 7.45484C17.4816 7.5514 17.5554 7.66251 17.5994 7.78817C17.6434 7.91384 17.6654 8.03951 17.6654 8.16517C17.6654 8.29929 17.6425 8.42723 17.5967 8.54901C17.5509 8.6709 17.4781 8.78223 17.3782 8.88301L8.9397 17.315C8.83025 17.4245 8.70186 17.5103 8.55453 17.5727C8.4072 17.6351 8.25225 17.6663 8.0897 17.6663H6.9347ZM14.5695 9.42884L14.1564 9.00101L14.9974 9.84201L14.5695 9.42884Z" fill="#1C1B1F"/>
</g>
</svg>
