<svg width="20" height="20" viewBox="0 0 20 20" fill="none" xmlns="http://www.w3.org/2000/svg">
<mask id="mask0_1732_34298" style="mask-type:alpha" maskUnits="userSpaceOnUse" x="0" y="0" width="20" height="20">
<rect width="20" height="20" fill="#D9D9D9"/>
</mask>
<g mask="url(#mask0_1732_34298)">
<path d="M4.89328 14.4244C5.67105 13.8731 6.47821 13.4492 7.31475 13.1527C8.1513 12.8562 9.0466 12.708 10.0007 12.708C10.9547 12.708 11.85 12.8562 12.6865 13.1527C13.5231 13.4492 14.3302 13.8731 15.108 14.4244C15.6582 13.7855 16.0765 13.1025 16.3628 12.3755C16.6492 11.6484 16.7923 10.8565 16.7923 9.99967C16.7923 8.13856 16.1256 6.54134 14.7923 5.20801C13.459 3.87467 11.8618 3.20801 10.0007 3.20801C8.13954 3.20801 6.54232 3.87467 5.20898 5.20801C3.87565 6.54134 3.20898 8.13856 3.20898 9.99967C3.20898 10.8565 3.35214 11.6484 3.63846 12.3755C3.9248 13.1025 4.34307 13.7855 4.89328 14.4244ZM10.0028 10.9163C9.16055 10.9163 8.44963 10.6273 7.87005 10.0491C7.29045 9.47096 7.00065 8.76076 7.00065 7.91851C7.00065 7.07624 7.28973 6.36532 7.86788 5.78574C8.44603 5.20614 9.15623 4.91634 9.99848 4.91634C10.8407 4.91634 11.5517 5.20542 12.1313 5.78357C12.7109 6.36172 13.0007 7.07192 13.0007 7.91417C13.0007 8.75644 12.7116 9.46736 12.1334 10.0469C11.5553 10.6265 10.8451 10.9163 10.0028 10.9163ZM10.0007 18.1663C8.88526 18.1663 7.82946 17.9524 6.83323 17.5247C5.83703 17.0968 4.97031 16.5124 4.23309 15.7714C3.49587 15.0304 2.91171 14.1621 2.48061 13.1663C2.04953 12.1706 1.83398 11.1116 1.83398 9.98926C1.83398 8.86692 2.04953 7.81137 2.48061 6.82259C2.91171 5.83381 3.49587 4.96892 4.23309 4.2279C4.97031 3.4869 5.83703 2.9025 6.83323 2.4747C7.82946 2.0469 8.88873 1.83301 10.0111 1.83301C11.1334 1.83301 12.189 2.04855 13.1777 2.47963C14.1665 2.91073 15.0298 3.49513 15.7675 4.23284C16.5052 4.97056 17.0896 5.83325 17.5207 6.8209C17.9518 7.80857 18.1673 8.86816 18.1673 9.99967C18.1673 11.1151 17.9534 12.1709 17.5256 13.1671C17.0978 14.1633 16.5134 15.03 15.7724 15.7672C15.0314 16.5045 14.1671 17.0886 13.1794 17.5197C12.1918 17.9508 11.1322 18.1663 10.0007 18.1663ZM10.0007 16.7913C10.6994 16.7913 11.4136 16.6674 12.1433 16.4195C12.873 16.1717 13.5087 15.8282 14.0503 15.3891C13.5087 14.982 12.889 14.6626 12.1914 14.4308C11.4937 14.1989 10.7635 14.083 10.0007 14.083C9.23783 14.083 8.50493 14.1963 7.80194 14.4228C7.09894 14.6492 6.48195 14.9714 5.95096 15.3891C6.49263 15.8282 7.12832 16.1717 7.85803 16.4195C8.58772 16.6674 9.30193 16.7913 10.0007 16.7913ZM10.0007 9.54134C10.4408 9.54134 10.8217 9.38055 11.1433 9.05897C11.4649 8.73738 11.6257 8.35651 11.6257 7.91634C11.6257 7.47617 11.4649 7.0953 11.1433 6.77372C10.8217 6.45213 10.4408 6.29134 10.0007 6.29134C9.56048 6.29134 9.17961 6.45213 8.85803 6.77372C8.53644 7.0953 8.37565 7.47617 8.37565 7.91634C8.37565 8.35651 8.53644 8.73738 8.85803 9.05897C9.17961 9.38055 9.56048 9.54134 10.0007 9.54134Z" fill="#4B4743"/>
</g>
</svg>
