<svg width="52" height="37" viewBox="0 0 52 37" fill="none" xmlns="http://www.w3.org/2000/svg">
<path d="M33.3459 6.44098L41.6824 4.40134L45.3634 5.36749L48.2866 7.83653L47.3122 25.6566H34.1038L33.3459 6.44098Z" fill="#FFF9D5"/>
<path d="M40.831 20.375H42.4433V21.4699H39.388V16.3236H40.831V20.375Z" fill="#322F56"/>
<path d="M50.4813 8.34204H30.2896C29.825 8.34204 29.4483 8.71552 29.4483 9.17623V12.513C29.4483 12.9737 29.825 13.3472 30.2896 13.3472H50.4813C50.9459 13.3472 51.3226 12.9737 51.3226 12.513V9.17623C51.3226 8.71552 50.9459 8.34204 50.4813 8.34204Z" fill="#6666FF"/>
<path d="M41.6137 4.25441C41.2064 4.20143 40.7962 4.17357 40.3854 4.17099C38.6802 4.16425 37.0069 4.62907 35.5534 5.51323C34.0999 6.39738 32.9238 7.66586 32.1573 9.17617H34.6139C35.2857 7.85066 36.2751 6.70879 37.4955 5.8507C38.7159 4.9926 40.1299 4.44448 41.6137 4.25441Z" fill="#D6DBE1"/>
<path d="M33.1334 9.17618C33.7917 8.03168 34.7176 7.06073 35.8332 6.34504C36.9489 5.62935 38.2216 5.18986 39.5442 5.06358V5.83939C39.5405 5.89494 39.5405 5.95067 39.5442 6.00623C39.5534 6.05849 39.5705 6.10909 39.5947 6.15638C39.6131 6.20954 39.6386 6.26003 39.6704 6.30654C39.7015 6.35024 39.7352 6.39202 39.7714 6.43167C39.8514 6.50761 39.9458 6.56714 40.049 6.60685C40.154 6.65617 40.2696 6.67909 40.3856 6.67358C40.6087 6.67358 40.8227 6.5857 40.9805 6.42925C41.1382 6.27281 41.2269 6.06063 41.2269 5.83939V5.06358C42.5495 5.18986 43.8222 5.62935 44.9379 6.34504C46.0535 7.06073 46.9794 8.03168 47.6377 9.17618H49.4465C49.4518 9.04593 49.4228 8.91655 49.3624 8.80079C48.5916 7.27921 47.4377 5.98066 46.0125 5.03075C44.5872 4.08084 42.9389 3.51174 41.2269 3.3785V0.834198C41.2269 0.612955 41.1382 0.400774 40.9805 0.244331C40.8227 0.0878886 40.6087 0 40.3856 0H34.4963V1.6684H39.5442V3.3785C37.8322 3.51174 36.1838 4.08084 34.7586 5.03075C33.3334 5.98066 32.1795 7.27921 31.4087 8.80079C31.3483 8.91655 31.3193 9.04593 31.3246 9.17618H33.1334Z" fill="#322F56"/>
<path d="M31.9723 12.5129L33.6549 25.8601H35.733L34.0503 12.5129H31.9723Z" fill="#D6DBE1"/>
<path d="M47.1159 26.6944H33.6548C33.4481 26.6959 33.2481 26.6219 33.093 26.4865C32.9378 26.3511 32.8383 26.1638 32.8135 25.9603L31.1309 12.6131L32.8135 12.4129L34.3952 25.026H46.3756L47.9572 12.4129L49.6399 12.6131L47.9572 25.9603C47.9324 26.1638 47.833 26.3511 47.6778 26.4865C47.5226 26.6219 47.3226 26.6959 47.1159 26.6944Z" fill="#322F56"/>
<path d="M18.4052 11.5938L26.7417 9.55412L30.4227 10.5203L33.3459 12.9893L32.3715 30.8094H19.1631L18.4052 11.5938Z" fill="#FFF9D5"/>
<path d="M28.9906 21.4764V26.6227H27.5476V23.7831L26.5684 26.6227H25.3611L24.3746 23.7612V26.6227H22.9316V21.4764H24.6764L25.9795 24.8197L27.2531 21.4764H28.9906Z" fill="#322F56"/>
<path d="M35.5406 13.4948H15.3489C14.8843 13.4948 14.5076 13.8683 14.5076 14.329V17.6658C14.5076 18.1265 14.8843 18.5 15.3489 18.5H35.5406C36.0052 18.5 36.3819 18.1265 36.3819 17.6658V14.329C36.3819 13.8683 36.0052 13.4948 35.5406 13.4948Z" fill="#6666FF"/>
<path d="M26.673 9.40719C26.2657 9.35421 25.8555 9.32635 25.4447 9.32377C23.7395 9.31703 22.0662 9.78185 20.6127 10.666C19.1592 11.5502 17.9832 12.8186 17.2166 14.329H19.6733C20.345 13.0034 21.3344 11.8616 22.5548 11.0035C23.7752 10.1454 25.1892 9.59727 26.673 9.40719Z" fill="#D6DBE1"/>
<path d="M18.1927 14.329C18.851 13.1845 19.7769 12.2135 20.8925 11.4978C22.0082 10.7821 23.2809 10.3427 24.6035 10.2164V10.9922C24.5998 11.0477 24.5998 11.1035 24.6035 11.159C24.6128 11.2113 24.6298 11.2619 24.654 11.3092C24.6724 11.3623 24.6979 11.4128 24.7297 11.4593C24.7608 11.503 24.7945 11.5448 24.8307 11.5845C24.9107 11.6604 25.0051 11.7199 25.1083 11.7596C25.2133 11.809 25.3289 11.8319 25.4449 11.8264C25.668 11.8264 25.882 11.7385 26.0398 11.582C26.1975 11.4256 26.2862 11.2134 26.2862 10.9922V10.2164C27.6088 10.3427 28.8815 10.7821 29.9972 11.4978C31.1128 12.2135 32.0387 13.1845 32.697 14.329H34.5058C34.5111 14.1987 34.4821 14.0693 34.4217 13.9536C33.6509 12.432 32.497 11.1334 31.0718 10.1835C29.6466 9.23363 27.9982 8.66453 26.2862 8.53129V5.98698C26.2862 5.76574 26.1975 5.55356 26.0398 5.39712C25.882 5.24067 25.668 5.15279 25.4449 5.15279H19.5556V6.82118H24.6035V8.53129C22.8915 8.66453 21.2432 9.23363 19.8179 10.1835C18.3927 11.1334 17.2388 12.432 16.468 13.9536C16.4076 14.0693 16.3786 14.1987 16.3839 14.329H18.1927Z" fill="#322F56"/>
<path d="M17.0316 17.6657L18.7142 31.0129H20.7923L19.1096 17.6657H17.0316Z" fill="#D6DBE1"/>
<path d="M32.1752 31.8472H18.7141C18.5075 31.8487 18.3074 31.7747 18.1523 31.6393C17.9971 31.5039 17.8976 31.3166 17.8728 31.1131L16.1902 17.7659L17.8728 17.5657L19.4545 30.1788H31.4349L33.0165 17.5657L34.6992 17.7659L33.0165 31.1131C32.9917 31.3166 32.8923 31.5039 32.7371 31.6393C32.5819 31.7747 32.3819 31.8487 32.1752 31.8472Z" fill="#322F56"/>
<path d="M3.89757 16.7466L12.234 14.7069L15.9151 15.6731L18.8383 18.1421L17.8639 35.9622H4.65543L3.89757 16.7466Z" fill="#FFF9D5"/>
<path d="M11.0319 31.8266C10.4282 31.8266 9.93246 31.6855 9.54472 31.4032C9.15699 31.1161 8.94839 30.7073 8.91894 30.1769H10.4576C10.4723 30.3569 10.5263 30.4883 10.6196 30.571C10.7128 30.6538 10.8331 30.6951 10.9803 30.6951C11.1128 30.6951 11.2208 30.6635 11.3043 30.6003C11.3926 30.5321 11.4368 30.4397 11.4368 30.3229C11.4368 30.172 11.3656 30.0552 11.2233 29.9725C11.0809 29.8897 10.8503 29.7973 10.5312 29.6951C10.1926 29.5831 9.91773 29.4761 9.70669 29.3739C9.50055 29.2668 9.31895 29.1135 9.16189 28.914C9.00974 28.7096 8.93367 28.4444 8.93367 28.1183C8.93367 27.7874 9.01711 27.5051 9.18398 27.2715C9.35085 27.0331 9.58153 26.853 9.87602 26.7314C10.1705 26.6097 10.5042 26.5489 10.8773 26.5489C11.4809 26.5489 11.9619 26.69 12.3202 26.9723C12.6834 27.2496 12.8773 27.6414 12.9018 28.1475H11.3337C11.3288 27.9918 11.2797 27.875 11.1865 27.7971C11.0981 27.7193 10.9828 27.6803 10.8404 27.6803C10.7325 27.6803 10.6441 27.712 10.5754 27.7752C10.5067 27.8385 10.4723 27.9285 10.4723 28.0453C10.4723 28.1427 10.5092 28.2278 10.5828 28.3008C10.6613 28.3689 10.757 28.4298 10.8699 28.4833C10.9828 28.532 11.1497 28.5952 11.3705 28.6731C11.6994 28.785 11.9693 28.897 12.1803 29.0089C12.3963 29.116 12.5804 29.2693 12.7325 29.4688C12.8896 29.6634 12.9681 29.9116 12.9681 30.2134C12.9681 30.52 12.8896 30.7949 12.7325 31.0382C12.5804 31.2816 12.357 31.4738 12.0626 31.6149C11.773 31.756 11.4294 31.8266 11.0319 31.8266Z" fill="#322F56"/>
<path d="M21.0329 18.6476H0.841317C0.376671 18.6476 0 19.0211 0 19.4818V22.8186C0 23.2793 0.376671 23.6528 0.841317 23.6528H21.0329C21.4976 23.6528 21.8743 23.2793 21.8743 22.8186V19.4818C21.8743 19.0211 21.4976 18.6476 21.0329 18.6476Z" fill="#6666FF"/>
<path d="M12.1654 14.56C11.7581 14.507 11.3478 14.4791 10.9371 14.4766C9.23186 14.4698 7.55855 14.9346 6.10507 15.8188C4.65159 16.703 3.47552 17.9714 2.70897 19.4817H5.16562C5.83733 18.1562 6.82677 17.0144 8.04716 16.1563C9.26754 15.2982 10.6816 14.7501 12.1654 14.56Z" fill="#D6DBE1"/>
<path d="M3.68507 19.4817C4.34334 18.3373 5.26926 17.3663 6.3849 16.6506C7.50054 15.9349 8.77325 15.4954 10.0959 15.3692V16.145C10.0922 16.2005 10.0922 16.2562 10.0959 16.3118C10.1051 16.3641 10.1221 16.4147 10.1464 16.462C10.1648 16.5151 10.1903 16.5656 10.2221 16.6121C10.2532 16.6558 10.2869 16.6976 10.3231 16.7372C10.4031 16.8132 10.4974 16.8727 10.6007 16.9124C10.7056 16.9617 10.8212 16.9847 10.9372 16.9792C11.1604 16.9792 11.3744 16.8913 11.5321 16.7348C11.6899 16.5784 11.7785 16.3662 11.7785 16.145V15.3692C13.1012 15.4954 14.3739 15.9349 15.4896 16.6506C16.6052 17.3663 17.5311 18.3373 18.1894 19.4817H19.9982C20.0035 19.3515 19.9745 19.2221 19.9141 19.1064C19.1432 17.5848 17.9894 16.2862 16.5642 15.3363C15.1389 14.3864 13.4906 13.8173 11.7785 13.6841V11.1398C11.7785 10.9185 11.6899 10.7063 11.5321 10.5499C11.3744 10.3935 11.1604 10.3056 10.9372 10.3056H5.048V11.974H10.0959V13.6841C8.38389 13.8173 6.73553 14.3864 5.3103 15.3363C3.88507 16.2862 2.73121 17.5848 1.96037 19.1064C1.89993 19.2221 1.87094 19.3515 1.87624 19.4817H3.68507Z" fill="#322F56"/>
<path d="M2.52395 22.8185L4.20658 36.1657H6.28464L4.602 22.8185H2.52395Z" fill="#D6DBE1"/>
<path d="M17.6676 37H4.20651C3.99982 37.0015 3.79981 36.9274 3.64464 36.792C3.48947 36.6567 3.39 36.4694 3.3652 36.2659L1.68256 22.9187L3.3652 22.7185L4.94687 35.3316H16.9272L18.5089 22.7185L20.1915 22.9187L18.5089 36.2659C18.4841 36.4694 18.3846 36.6567 18.2295 36.792C18.0743 36.9274 17.8743 37.0015 17.6676 37Z" fill="#322F56"/>
</svg>
