<svg width="40" height="40" viewBox="0 0 40 40" fill="none" xmlns="http://www.w3.org/2000/svg">
<path d="M20 20L35 5" stroke="black" stroke-width="2" stroke-linecap="round" stroke-linejoin="round"/>
<path d="M30.6095 9.39118C27.9503 6.72392 24.3865 5.15221 20.6237 4.98711C16.8609 4.82202 13.1733 6.07559 10.2906 8.4997C7.40797 10.9238 5.54043 14.3418 5.05764 18.0772C4.57484 21.8125 5.51198 25.593 7.68355 28.6704C9.85513 31.7477 13.1029 33.8977 16.784 34.6948C20.4651 35.4918 24.3114 34.8778 27.5614 32.9743C30.8114 31.0708 33.2284 28.0166 34.334 24.4161C35.4396 20.8156 35.1531 16.9312 33.5314 13.5318" stroke="black" stroke-width="2" stroke-linecap="round" stroke-linejoin="round"/>
<path d="M25.2965 14.7042C24.0578 13.469 22.4256 12.7067 20.6833 12.5497C18.941 12.3928 17.1988 12.8511 15.7592 13.845C14.3197 14.8389 13.2738 16.3057 12.8032 17.9906C12.3326 19.6755 12.4671 21.4719 13.1833 23.068C13.8995 24.664 15.1521 25.9587 16.7235 26.7273C18.295 27.4958 20.086 27.6897 21.7855 27.2751C23.485 26.8605 24.9856 25.8636 26.0266 24.4578C27.0676 23.0519 27.5833 21.3258 27.484 19.5792" stroke="black" stroke-width="2" stroke-linecap="round" stroke-linejoin="round"/>
</svg>
