<svg width="25" height="24" viewBox="0 0 25 24" fill="none" xmlns="http://www.w3.org/2000/svg">
<path fill-rule="evenodd" clip-rule="evenodd" d="M0.992188 3.75C0.992188 1.67893 2.67112 0 4.74219 0H21.2422C23.3133 0 24.9922 1.67893 24.9922 3.75V20.25C24.9922 22.3211 23.3133 24 21.2422 24H4.74219C2.67112 24 0.992188 22.3211 0.992188 20.25V3.75ZM7.14219 9.975V18H9.69219V9.975H7.14219ZM6.99219 7.425C6.99219 8.25 7.59219 8.85 8.41719 8.85C9.24219 8.85 9.84219 8.25 9.84219 7.425C9.84219 6.6 9.24219 6 8.41719 6C7.66719 6 6.99219 6.6 6.99219 7.425ZM16.4422 18H18.8422V13.05C18.8422 10.575 17.3422 9.75 15.9172 9.75C14.6422 9.75 13.7422 10.575 13.5172 11.1V9.975H11.1172V18H13.6672V13.725C13.6672 12.6 14.4172 12 15.1672 12C15.9172 12 16.4422 12.375 16.4422 13.65V18Z" fill="#0040D8"/>
</svg>
