<svg width="24" height="24" viewBox="0 0 24 24" fill="none" xmlns="http://www.w3.org/2000/svg">
<mask id="mask0_335_510" style="mask-type:luminance" maskUnits="userSpaceOnUse" x="0" y="0" width="24" height="24">
<path d="M0 1.90735e-06H24V24H0V1.90735e-06Z" fill="white"/>
</mask>
<g mask="url(#mask0_335_510)">
<path d="M19.3096 6.37329V4.49618C19.3096 3.46184 18.471 2.62329 17.4367 2.62329H2.80957C1.77405 2.62329 0.93457 3.46278 0.93457 4.49829C0.93457 5.53381 1.77405 6.37329 2.80957 6.37329H21.1867C22.221 6.37329 23.0596 7.21184 23.0596 8.24618V11.0608" stroke="#009245" stroke-width="2" stroke-miterlimit="10"/>
<path d="M23.0596 16.6858V19.5004C23.0596 20.5347 22.221 21.3733 21.1867 21.3733H2.80957C1.77405 21.3733 0.93457 20.5339 0.93457 19.4983V4.49829" stroke="#009245" stroke-width="2" stroke-miterlimit="10"/>
<path d="M23.0596 16.6858H18.3721C16.8188 16.6858 15.5596 15.4266 15.5596 13.8733C15.5596 12.32 16.8188 11.0608 18.3721 11.0608H23.0596V16.6858Z" stroke="#009245" stroke-width="2" stroke-miterlimit="10"/>
</g>
</svg>
