<svg width="32" height="32" viewBox="0 0 32 32" fill="none" xmlns="http://www.w3.org/2000/svg">
<g clip-path="url(#clip0_335_969)">
<path d="M32 16C32 16.4322 31.9834 16.8561 31.9418 17.28C31.6343 21.1699 29.9138 24.6857 27.3039 27.3039C24.4031 30.2047 20.4052 32 16 32C14.8114 32 13.6561 31.867 12.5506 31.6177C11.7694 31.4514 11.0213 31.227 10.2899 30.9444C4.28883 28.6338 0 22.7906 0 16C0 11.6031 1.80364 7.59688 4.6961 4.6961C7.59688 1.79532 11.5948 0 16 0C20.4052 0 24.4031 1.79532 27.3039 4.6961C29.1158 6.51636 30.5039 8.76883 31.2852 11.279C31.626 12.3844 31.8504 13.5314 31.9418 14.72C31.9501 14.8031 31.9584 14.8945 31.9584 14.9777C31.9917 15.3184 32 15.6509 32 16Z" fill="url(#paint0_linear_335_969)"/>
<path d="M32.0004 16.0006C32.0004 16.4328 31.9838 16.8567 31.9422 17.2806C31.6347 21.1704 29.9142 24.6863 27.3043 27.3045C24.4035 30.2052 20.4056 32.0006 16.0004 32.0006C14.8119 32.0006 13.6565 31.8676 12.5511 31.6182L6.74121 25.5341L13.881 17.2473L6.84926 7.01562H12.9417L18.1615 12.2686L22.6747 7.01562H25.2015L31.6929 13.9642C31.7926 14.2967 31.8841 14.6374 31.9589 14.9782C31.9921 15.319 32.0004 15.6515 32.0004 16.0006Z" fill="#161616"/>
<path d="M25.6664 25.536H19.574L15.0025 18.8783L9.27578 25.536H6.74902L13.8805 17.2493L6.85708 7.02588H12.9495L17.2716 13.3178L22.6825 7.02588H25.2093L18.3937 14.9469L25.6747 25.536H25.6664ZM19.9729 24.7796H24.2368L17.4379 14.8887L23.5636 7.76562H23.0233L17.1968 14.5396L12.5423 7.76562H8.27837L14.828 17.2908L8.38643 24.7796H8.92669L15.069 17.6399L19.9729 24.7796ZM23.5719 24.4306H20.2971L8.92669 8.17289H12.2015L23.5719 24.4306ZM20.6877 23.6825H22.1256L11.8108 8.92926H10.3729L20.6877 23.6825Z" fill="white"/>
</g>
<defs>
<linearGradient id="paint0_linear_335_969" x1="2.15273" y1="8.00416" x2="29.8473" y2="23.9958" gradientUnits="userSpaceOnUse">
<stop stop-color="#646464"/>
<stop offset="0.72" stop-color="#1D1D1D"/>
<stop offset="1"/>
</linearGradient>
<clipPath id="clip0_335_969">
<rect width="32" height="32" fill="white"/>
</clipPath>
</defs>
</svg>
