<svg width="32" height="32" viewBox="0 0 32 32" fill="none" xmlns="http://www.w3.org/2000/svg">
<g clip-path="url(#clip0_335_980)">
<path d="M0 16C0 7.16333 7.16333 0 16 0C24.8367 0 32 7.16333 32 16C32 24.8367 24.8367 32 16 32C7.16333 32 0 24.8367 0 16Z" fill="#FF0000"/>
<path d="M24.1758 12.0506C23.9798 11.2973 23.4012 10.7033 22.6672 10.5013C21.3358 10.1353 15.9992 10.1353 15.9992 10.1353C15.9992 10.1353 10.6625 10.1353 9.33115 10.5019C8.59715 10.7033 8.01849 11.2966 7.82249 12.0506C7.46582 13.4173 7.46582 16.2686 7.46582 16.2686C7.46582 16.2686 7.46582 19.1199 7.82249 20.4866C8.01849 21.2399 8.59715 21.8339 9.33115 22.0359C10.6625 22.4019 15.9992 22.4019 15.9992 22.4019C15.9992 22.4019 21.3358 22.4019 22.6672 22.0353C23.4012 21.8339 23.9798 21.2406 24.1758 20.4866C24.5325 19.1199 24.5325 16.2686 24.5325 16.2686C24.5325 16.2686 24.5325 13.4173 24.1758 12.0506Z" fill="white"/>
<path d="M14.3994 19.1981V13.8647L18.6661 16.5314L14.3994 19.1981Z" fill="#FF0000"/>
</g>
<defs>
<clipPath id="clip0_335_980">
<rect width="32" height="32" fill="white"/>
</clipPath>
</defs>
</svg>
